<svg xmlns="http://www.w3.org/2000/svg" width="278" height="274" viewBox="0 0 278 274" fill="none">
  <path d="M108.411 179.891C104.473 174.637 100.799 169.161 97.0816 164.171C75.4846 134.541 60.5138 102.076 54.9526 65.7994C48.815 27.7557 53.1085 -9.10647 71.635 -43.4655C92.852 -83.2192 125.494 -100.138 170.313 -94.3985C174.91 -93.7407 179.728 -92.8181 184.546 -91.8954C211.909 -85.518 236.185 -72.0662 257.064 -53.5283C291.567 -22.985 316.398 14.2865 331.071 58.2425C339.937 85.0138 342.66 111.969 335.75 139.774C323.866 187.472 293.756 217.116 245.108 226.716C227.389 230.271 209.226 230.601 191.281 228.5C187.878 228.194 184.253 227.624 179.968 228.954C181.516 230.809 182.8 232.884 184.657 234.031C197.437 241.795 210.439 249.824 223.527 256.88C233.344 262.172 236.043 264.865 233.882 269.817C231.5 274.504 227.037 275.084 217.09 271.25C198.079 264.642 181.716 253.126 166.456 240.239C161.679 236.134 156.901 232.029 152.389 227.704C145.178 220.685 137.307 215.567 127.889 211.291C83.851 191.409 48.0237 161.972 21.2453 121.83C10.6666 105.932 3.17988 88.3518 0.773459 68.7768C0.371928 65.065 -0.250866 61.0883 1.02741 57.7724C1.99701 55.1639 5.39753 52.7736 8.09338 52.7706C9.81686 52.6803 12.4718 55.8592 13.9768 58.1998C14.8617 59.2594 14.4657 60.9393 14.8208 62.4414C16.5198 81.7079 24.5364 98.846 35.1588 114.258C52.9509 139.87 75.2908 161.234 101.206 178.264C102.577 179.367 104.478 180.028 106.114 180.91C106.114 180.91 106.644 180.468 108.411 179.891ZM267.572 -20.4833C262.174 -25.8689 252.574 -36.2878 241.383 -45.3791C216.968 -65.4598 189.466 -78.4661 156.981 -79.6671C134.265 -80.4814 114.517 -73.4325 99.1998 -55.6938C83.5738 -37.2476 74.7571 -15.4946 70.9361 7.93227C64.7416 44.1336 70.9202 78.9953 85.8035 112.433C100.244 145.341 122.811 172.362 146.659 198.763C148.871 201.412 152.629 203.22 155.945 204.498C187.643 214.45 219.509 217.066 251.63 208.678C279.995 201.177 300.882 184.183 312.831 157.566C325.707 128.825 326.163 99.2153 317.337 69.2621C307.892 38.0279 291.998 10.3806 267.572 -20.4833Z" fill="#353535"/>
</svg>