<svg xmlns="http://www.w3.org/2000/svg" width="61" height="64" viewBox="0 0 61 64" fill="none">
  <path d="M31.4487 30.8125C29.6351 32.0514 28.681 34.0334 28.5028 36.1839C28.2679 33.3159 27.3503 31.4747 24.4688 30.8182C27.4191 30.5889 28.1751 28.2066 28.7886 25.6875C28.6734 27.8328 29.1158 30.1372 31.3817 30.8989" stroke="#272727" stroke-width="2.65385" stroke-miterlimit="1.5" stroke-linecap="round" stroke-linejoin="round"/>
  <path d="M11.4648 10.3145C11.6359 10.6086 11.7913 10.9227 11.9828 11.2039" stroke="#272727" stroke-width="2.65385" stroke-miterlimit="1.5" stroke-linecap="round" stroke-linejoin="round"/>
  <path d="M13.6719 14.1309C15.3946 17.1299 17.3667 20.0626 18.9005 23.161" stroke="#272727" stroke-width="2.65385" stroke-miterlimit="1.5" stroke-linecap="round" stroke-linejoin="round"/>
  <path d="M18.5 3.68164C20.2171 8.32512 21.4718 13.183 23.3307 17.7671" stroke="#272727" stroke-width="2.65385" stroke-miterlimit="1.5" stroke-linecap="round" stroke-linejoin="round"/>
  <path d="M28.8867 2C28.9535 4.94726 29.0153 7.89452 29.0791 10.8405" stroke="#272727" stroke-width="2.65385" stroke-miterlimit="1.5" stroke-linecap="round" stroke-linejoin="round"/>
  <path d="M29.1055 14.4473C29.1395 14.9775 29.1464 15.5084 29.177 16.0386" stroke="#272727" stroke-width="2.65385" stroke-miterlimit="1.5" stroke-linecap="round" stroke-linejoin="round"/>
  <path d="M38.4817 11.5778C36.2898 14.8965 34.1066 18.2107 31.9883 21.5792M42.4391 5.40625C41.4987 7.7096 39.8344 9.5312 38.4821 11.5785" stroke="#272727" stroke-width="2.65385" stroke-miterlimit="1.5" stroke-linecap="round" stroke-linejoin="round"/>
  <path d="M40.457 20.5163C42.1509 19.1538 43.7513 17.5018 45.2532 15.9297" stroke="#272727" stroke-width="2.65385" stroke-miterlimit="1.5" stroke-linecap="round" stroke-linejoin="round"/>
  <path d="M47.3906 14.0145C48.0219 13.3902 48.7018 12.8194 49.3342 12.1953" stroke="#272727" stroke-width="2.65385" stroke-miterlimit="1.5" stroke-linecap="round" stroke-linejoin="round"/>
  <path d="M56.0625 21.709C51.1062 24.3271 45.5098 26.6583 40.1562 28.425" stroke="#272727" stroke-width="2.65385" stroke-miterlimit="1.5" stroke-linecap="round" stroke-linejoin="round"/>
  <path d="M17.4032 27.8754C12.5561 25.0099 7.57199 22.4717 2.60938 19.8262" stroke="#272727" stroke-width="2.65385" stroke-miterlimit="1.5" stroke-linecap="round" stroke-linejoin="round"/>
  <path d="M16.3508 32.2148C15.3666 32.2488 14.3854 32.2884 13.4062 32.3921" stroke="#272727" stroke-width="2.65385" stroke-miterlimit="1.5" stroke-linecap="round" stroke-linejoin="round"/>
  <path d="M9.85839 32.5957C7.23831 32.7352 4.57989 32.7089 1.97266 32.9984" stroke="#272727" stroke-width="2.65385" stroke-miterlimit="1.5" stroke-linecap="round" stroke-linejoin="round"/>
  <path d="M40.4023 33.7402C41.5799 33.7793 42.9181 33.8559 44.0885 34.0947" stroke="#272727" stroke-width="2.65385" stroke-miterlimit="1.5" stroke-linecap="round" stroke-linejoin="round"/>
  <path d="M47.8867 34.9668C51.6965 35.3669 55.405 36.4074 59.162 37.0581" stroke="#272727" stroke-width="2.65385" stroke-miterlimit="1.5" stroke-linecap="round" stroke-linejoin="round"/>
  <path d="M20.8855 35.7441C15.0952 40.1371 8.88699 43.8741 3.11328 48.3025" stroke="#272727" stroke-width="2.65385" stroke-miterlimit="1.5" stroke-linecap="round" stroke-linejoin="round"/>
  <path d="M22.2651 41.4043C19.5827 45.0543 17.8362 49.3403 15.6445 53.2761" stroke="#272727" stroke-width="2.65385" stroke-miterlimit="1.5" stroke-linecap="round" stroke-linejoin="round"/>
  <path d="M20.9141 62.5275C21.3969 59.9076 22.3689 57.3305 23.1127 54.7787C23.5962 53.1197 23.8723 51.3236 24.6477 49.7656" stroke="#272727" stroke-width="2.65385" stroke-miterlimit="1.5" stroke-linecap="round" stroke-linejoin="round"/>
  <path d="M26.043 46.7175C26.2525 46.1935 26.3857 45.6392 26.6135 45.123" stroke="#272727" stroke-width="2.65385" stroke-miterlimit="1.5" stroke-linecap="round" stroke-linejoin="round"/>
  <path d="M30.7422 42.7754C32.2645 48.0867 33.3246 53.5437 34.711 58.8986" stroke="#272727" stroke-width="2.65385" stroke-miterlimit="1.5" stroke-linecap="round" stroke-linejoin="round"/>
  <path d="M36.707 39.6152C39.1471 42.3065 42.1863 44.496 44.5286 47.2495" stroke="#272727" stroke-width="2.65385" stroke-miterlimit="1.5" stroke-linecap="round" stroke-linejoin="round"/>
  <path d="M47.9922 50.2207C48.6054 50.9322 49.3181 51.606 50.0022 52.2483" stroke="#272727" stroke-width="2.65385" stroke-miterlimit="1.5" stroke-linecap="round" stroke-linejoin="round"/>
</svg>