<svg xmlns="http://www.w3.org/2000/svg" width="58" height="66" viewBox="0 0 58 66" fill="none">
  <path fill-rule="evenodd" clip-rule="evenodd" d="M21.9531 20.2372C19.0081 25.3598 15.3628 30.1958 11.8833 34.9569C8.83956 29.9646 5.9752 24.8509 3 19.8206C6.66342 14.6753 9.36516 8.71922 12.0065 3C16.0805 9.06723 19.3948 14.915 21.9531 20.2372Z" stroke="#C7DADA" stroke-width="6" stroke-miterlimit="1.5" stroke-linecap="round" stroke-linejoin="round"/>
  <path fill-rule="evenodd" clip-rule="evenodd" d="M44.3974 63.2655C44.5432 57.5381 42.3002 51.8266 37.3822 48.3795C35.4778 47.0447 33.2218 46.5587 31 46.1548C40.0262 45.833 43.1598 36.0136 44.4157 28.4121C43.9796 35.2297 47.4088 42.5937 54.4168 43.2732C47.4405 47.5391 45.0462 55.3671 44.3974 63.2655Z" stroke="#272727" stroke-width="5.1894" stroke-miterlimit="1.5" stroke-linecap="round" stroke-linejoin="round"/>
</svg>