<svg xmlns="http://www.w3.org/2000/svg" width="175" height="175" viewBox="0 0 175 175" fill="none">
  <g clip-path="url(#clip0_6006_11130)">
    <path fill-rule="evenodd" clip-rule="evenodd" d="M51.1433 101.371C48.6696 118.988 49.5872 137.212 58.3708 151.273C61.598 156.437 66.1547 160.422 70.7685 164.542C71.1741 164.904 71.7988 164.869 72.1595 164.463C72.521 164.058 72.4872 163.433 72.0824 163.073C67.6081 159.078 63.1696 155.234 60.0441 150.23C51.3918 136.382 50.6544 118.387 53.178 101.046C53.3299 101.023 53.4827 101.002 53.6355 100.981C56.9951 100.516 60.8474 97.7751 64.411 93.9413C69.5856 88.3776 74.2092 80.5537 75.9964 74.7208C76.8221 72.0304 77.0288 69.7261 76.5341 68.181C76.1232 66.8931 75.2797 66.0365 73.9574 65.7157C72.8664 65.4534 71.7072 65.575 70.5135 66.0431C68.9207 66.6687 67.2417 67.9305 65.583 69.6351C59.445 75.9422 53.4576 88.3611 52.3738 93.9971C52.034 95.7628 51.7237 97.5404 51.4462 99.3308C50.4911 99.4863 49.5778 99.6319 48.6957 99.6895C47.4009 99.774 46.1845 99.6677 45.025 99.0345C42.8847 97.8668 41.5854 95.8239 40.7913 93.4639C39.5175 89.6865 39.5301 85.1054 39.7625 81.614C41.0686 61.9766 52.8409 46.6366 66.4109 34.7136C80.1338 22.6544 95.7162 14.0823 104.458 8.14005C104.907 7.83339 105.025 7.21926 104.718 6.77075C104.414 6.32106 103.8 6.20444 103.35 6.50931C94.5611 12.4846 78.9046 21.1123 65.1104 33.2324C51.1633 45.4888 39.139 61.2992 37.7957 81.485C37.5507 85.1992 37.5697 90.0729 38.9232 94.0939C39.8828 96.9355 41.5025 99.3567 44.0792 100.763C45.5817 101.583 47.1516 101.764 48.8227 101.656C49.5719 101.607 50.3462 101.498 51.1433 101.371ZM53.4891 99.0111C56.4755 98.5417 59.8127 95.9946 62.9683 92.6C67.9406 87.2538 72.3954 79.7476 74.1145 74.1431C74.6892 72.2651 74.9613 70.6194 74.7887 69.3752C74.6653 68.4755 74.2936 67.8235 73.4951 67.6314C72.5767 67.41 71.5964 67.6481 70.5789 68.1756C69.4057 68.782 68.1986 69.7707 66.9935 71.0108C61.1071 77.0596 55.3467 88.9644 54.3084 94.3678C54.0137 95.9055 53.7396 97.4552 53.4891 99.0111Z" fill="#272727"/>
    <path fill-rule="evenodd" clip-rule="evenodd" d="M75.6153 163.774C75.1834 163.919 74.5705 163.978 73.9166 164.019C72.4372 164.113 70.7646 164.029 69.9701 164.017C69.4267 164.011 68.9784 164.446 68.9713 164.991C68.9642 165.535 69.4005 165.981 69.9448 165.988C70.9151 166.001 73.1323 166.111 74.8236 165.916C75.6926 165.815 76.4399 165.619 76.9108 165.344C77.3716 165.072 77.5939 164.715 77.6815 164.324C77.7735 163.912 77.687 163.39 77.3638 162.799C77.0083 162.15 76.3219 161.316 75.7206 160.32C75.2155 159.486 74.7624 158.524 74.7571 157.442C74.7555 156.898 74.313 156.457 73.7686 156.461C73.2265 156.463 72.7851 156.906 72.7891 157.449C72.7962 159.478 73.9038 161.224 74.8484 162.568C75.1303 162.968 75.4439 163.483 75.6153 163.774Z" fill="#272727"/>
  </g>
  <defs>
    <clipPath id="clip0_6006_11130">
      <rect width="130" height="130" fill="white" transform="translate(115.935) rotate(63.1011)"/>
    </clipPath>
  </defs>
</svg>