<svg xmlns="http://www.w3.org/2000/svg" width="232" height="225" viewBox="0 0 232 225" fill="none">
  <path d="M91.9557 160.727C88.565 156.96 85.3627 153.004 82.1604 149.425C63.5116 128.138 49.7609 104.214 42.9805 76.7109C35.6351 47.8888 36.3901 19.2546 48.2596 -8.43824C61.8248 -40.4639 85.7501 -55.7241 120.601 -54.4073C124.18 -54.2191 127.948 -53.8425 131.715 -53.4659C153.191 -50.4529 172.782 -41.7883 190.113 -28.9792C218.746 -7.8818 240.408 19.0558 254.724 51.8336C263.388 71.8017 267.343 92.3352 263.951 114.188C258.11 151.676 237.009 176.544 200.274 187.283C186.899 191.24 172.959 192.748 159.018 192.372C156.381 192.372 153.555 192.184 150.353 193.503C151.671 194.821 152.801 196.328 154.308 197.082C164.669 202.167 175.218 207.442 185.768 211.962C193.679 215.353 195.94 217.236 194.621 221.193C193.114 224.96 189.723 225.714 181.811 223.454C166.741 219.687 153.366 211.964 140.745 203.111C136.789 200.285 132.833 197.46 129.065 194.446C123.037 189.548 116.633 186.157 109.097 183.52C73.8704 171.277 44.2954 151.122 20.9375 122.112C11.7073 110.621 4.73783 97.6234 1.53609 82.7413C0.971083 79.9156 0.217703 76.9015 0.971364 74.2641C1.53662 72.1919 3.9857 70.1195 6.05791 69.931C7.3766 69.7426 9.63708 72.0031 10.9557 73.6985C11.7092 74.4519 11.5207 75.7706 11.8974 76.9009C14.534 91.5946 21.8803 104.216 31.1105 115.33C46.5569 133.791 65.206 148.672 86.3043 159.974C87.4345 160.727 88.9416 161.104 90.2602 161.669C90.2602 161.669 90.637 161.292 91.9557 160.727ZM200.472 -4.30159C195.951 -8.06901 187.851 -15.4155 178.621 -21.6317C158.465 -35.3826 136.424 -43.4819 111.369 -42.1619C93.8499 -41.2191 79.1557 -34.4366 68.6055 -19.7422C57.8669 -4.48269 52.5913 12.8488 51.2717 31.1219C49.0097 59.3794 56.1668 85.7526 69.9175 110.43C83.2914 134.731 102.505 153.945 122.661 172.594C124.545 174.477 127.559 175.607 130.197 176.361C155.251 181.823 179.929 181.633 204.043 172.966C225.33 165.241 240.213 150.735 247.561 129.448C255.474 106.465 253.78 83.6703 244.927 61.2533C235.509 37.8943 221.382 17.7381 200.472 -4.30159Z" fill="#353535"/>
</svg>