<svg xmlns="http://www.w3.org/2000/svg" width="51" height="57" viewBox="0 0 51 57" fill="none">
  <path fill-rule="evenodd" clip-rule="evenodd" d="M16.5896 51.3338C11.9407 49.8583 7.04944 49.0279 2.30334 48.2583C1.28099 48.0961 0.303758 48.7759 0.196552 49.7767C0.0159883 50.7756 0.718748 51.7185 1.66777 51.8783C6.26797 52.6203 11.013 53.4082 15.4435 54.8272C16.3876 55.1343 17.4338 54.6029 17.76 53.6389C18.0862 52.6757 17.5336 51.6417 16.5896 51.3338Z" fill="#272727"/>
  <path fill-rule="evenodd" clip-rule="evenodd" d="M31.4502 33.141C24.1572 25.1779 15.8773 18.1749 8.73793 10.01C8.1029 9.24847 6.93091 9.16925 6.17427 9.83456C5.41762 10.5006 5.30535 11.6597 6.01372 12.4237C13.1523 20.6113 21.4315 27.6364 28.7237 35.6222C29.4327 36.3686 30.6054 36.4184 31.3627 35.7333C32.0466 35.0465 32.1592 33.8874 31.4502 33.141Z" fill="#272727"/>
  <path fill-rule="evenodd" clip-rule="evenodd" d="M46.6039 3.97064C46.675 8.38978 46.7456 12.8089 46.8166 17.2288C46.7825 18.2393 47.6365 19.0493 48.6649 19.0348C49.6932 19.0196 50.4552 18.1842 50.4893 17.1729C50.4185 12.7464 50.3481 8.32072 50.2773 3.89497C50.2381 2.88197 49.3841 2.07712 48.3556 2.09745C47.4004 2.12027 46.5647 2.95837 46.6039 3.97064Z" fill="#272727"/>
</svg>