<svg xmlns="http://www.w3.org/2000/svg" width="320" height="151" viewBox="0 0 320 151" fill="none">
  <path d="M140.885 102.664C135.49 99.1418 130.264 95.3268 125.161 91.9747C95.3006 71.9093 70.5968 47.0044 53.2885 15.4262C34.8555 -17.5877 26.4362 -53.0149 31.9798 -90.9135C38.1924 -134.689 62.6063 -161.248 105.855 -171.006C110.314 -171.943 115.066 -172.71 119.818 -173.478C147.186 -176.786 174.085 -172.535 199.559 -162.455C241.625 -145.881 277.033 -119.856 305.321 -84.2567C322.485 -62.5517 334.046 -38.6148 337.012 -10.659C342.072 37.3071 324.265 74.7476 282.637 99.9339C267.495 109.161 250.86 115.564 233.61 119.653C230.37 120.514 226.836 121.205 223.332 123.871C225.383 125.06 227.263 126.543 229.361 126.977C243.75 129.843 258.433 132.88 272.869 134.99C283.697 136.573 287.089 138.15 286.76 143.441C286.138 148.562 282.218 150.595 271.759 150.401C252.014 150.692 233.06 145.569 214.664 138.811C208.881 136.631 203.098 134.451 197.486 131.978C188.481 127.928 179.505 125.853 169.386 125.073C122.109 121.53 79.1935 106.42 41.0259 78.4027C25.9346 67.2977 13.1289 53.603 4.33728 36.3637C2.72073 33.0764 0.811243 29.6191 0.876307 26.1327C0.89436 23.4022 3.2269 20.0566 5.71134 19.1486C7.27001 18.4867 10.7851 20.5261 12.9586 22.1786C14.1303 22.8584 14.3292 24.5401 15.161 25.8058C23.1968 42.9982 36.3425 56.107 51.3108 66.7491C76.3147 84.3883 104.085 96.5843 133.696 103.583C135.331 104.14 137.305 104.111 139.11 104.375C139.11 104.375 139.45 103.789 140.885 102.664ZM220.343 -135.517C213.558 -138.67 201.208 -145.052 187.838 -149.676C158.585 -159.992 128.862 -162.748 98.5099 -152.948C77.2926 -146.071 61.453 -132.941 53.2874 -111.443C45.0747 -89.1896 44.2504 -66.1737 48.5939 -43.292C55.0387 -7.83581 72.441 22.2307 97.3907 48.0614C121.754 73.5522 151.633 90.8872 182.485 107.22C185.414 108.92 189.486 109.324 192.972 109.389C225.538 107.921 255.796 99.6327 282.593 81.1132C306.226 64.6736 319.777 41.9928 321.856 13.4397C324.076 -17.3809 314.554 -44.8334 296.36 -69.4858C277.164 -95.1109 253.227 -115.264 220.343 -135.517Z" fill="#BED74B"/>
</svg>