<svg xmlns="http://www.w3.org/2000/svg" width="195" height="31" viewBox="0 0 195 31" fill="none">
  <path fill-rule="evenodd" clip-rule="evenodd" d="M52.035 17.9226C43.687 20.5833 34.0487 23.2311 24.7766 23.8923C16.8516 24.4566 9.19678 23.5801 2.93119 19.8509C2.04797 19.3258 0.941933 19.6867 0.464277 20.6585C-0.0141062 21.6294 0.315007 22.8453 1.19823 23.3712C8.03322 27.4383 16.3674 28.5021 25.0118 27.8857C34.4506 27.2134 44.2629 24.5478 52.7785 21.8487C53.7665 24.0492 55.8126 26.1007 59.4169 27.6143C64.9529 29.9396 72.5116 29.9108 80.4744 28.6005C92.0234 26.701 104.447 22.1713 112.434 18.9527C112.762 18.8215 113.25 18.6126 113.847 18.3372C114.029 18.7791 114.233 19.2145 114.459 19.6419C116.417 23.3672 119.883 26.3793 123.415 27.4551C145.812 34.2765 171.952 26.1031 193.235 19.4514C194.197 19.1496 194.757 18.0419 194.488 16.9797C194.211 15.9175 193.206 15.3003 192.238 15.6021C171.552 22.0681 146.154 30.2262 124.383 23.5977C121.704 22.7813 119.097 20.4664 117.611 17.6392C117.444 17.3239 117.298 17.0013 117.16 16.6739C120.094 15.0754 123.546 12.847 125.402 10.4617C127.31 8.0163 127.783 5.40606 126.123 2.94069C124.696 0.833121 122.534 0.653818 120.284 1.74642C117.859 2.91667 115.361 5.65255 114.553 6.93646C113.039 9.33459 112.558 11.9361 112.835 14.4727C112.121 14.8041 111.542 15.0506 111.184 15.1947C103.371 18.342 91.2283 22.7845 79.9356 24.6423C72.6696 25.8382 65.7676 25.9975 60.7158 23.8763C58.5613 22.971 57.1378 21.9144 56.3652 20.6881C57.8899 20.1871 59.3601 19.694 60.7646 19.2233C63.5425 18.2924 69.326 16.7516 73.4582 14.0052C76.7442 11.8216 78.9723 8.85117 78.8427 5.1275C78.7765 3.21444 77.7694 1.93771 76.1668 1.22211C73.772 0.153517 69.6304 0.670593 68.0882 1.03079C63.4107 2.121 57.1677 6.63392 54.0789 11.7191C52.8462 13.7483 52.1129 15.871 52.035 17.9226ZM55.8774 16.6723C57.1989 16.2352 58.4761 15.8062 59.703 15.3948C62.2959 14.5255 67.7161 13.1447 71.5745 10.5801C73.6176 9.22253 75.2858 7.59605 75.2049 5.28037C75.1984 5.10027 75.036 5.04905 74.8926 4.97541C74.6705 4.86255 74.4164 4.78489 74.1455 4.72405C72.3128 4.31262 69.851 4.71043 68.8433 4.94576C64.9186 5.86067 59.6979 9.67479 57.1065 13.942C56.5589 14.8433 56.1228 15.7614 55.8774 16.6723ZM116.432 12.6301C118.143 11.6623 119.934 10.492 121.347 9.21854C122.097 8.54216 122.73 7.8466 123.131 7.1246C123.466 6.52747 123.597 5.9159 123.196 5.32517C123.036 5.08583 122.796 5.08106 122.548 5.12589C122.286 5.17391 122.017 5.27634 121.747 5.40842C119.971 6.26809 118.136 8.27642 117.546 9.21854C116.854 10.3111 116.512 11.467 116.432 12.6301Z" fill="#BED74B"/>
</svg>