<svg xmlns="http://www.w3.org/2000/svg" width="13" height="18" viewBox="0 0 13 18" fill="none">
  <path d="M10.6953 12.1933C10.6475 12.2985 10.539 12.4729 10.3927 12.4774C10.1323 12.4869 10.1042 12.3531 9.91122 12.0679C9.48709 11.4418 5.79484 7.58251 5.10409 6.83494C4.49603 6.17851 5.01859 5.71557 5.26047 5.47313C5.56366 5.16826 6.45128 4.28232 6.45128 4.28232C7.80634 5.56088 9.03484 6.94126 10.1373 8.42176L10.197 8.50557C10.6633 9.14569 10.9434 9.94782 10.9434 10.8158C10.9434 11.3102 10.8523 11.7838 10.6863 12.2203L10.6953 12.1933ZM6.45128 15.7894C5.22672 15.7894 4.23447 14.7971 4.23447 13.5726C4.24291 13.0112 4.45047 12.4993 4.78966 12.1039L4.78684 12.1073C5.18678 11.6184 6.45072 10.2437 6.45072 10.2437C6.45072 10.2437 7.69609 11.6393 8.11234 12.1033C8.45716 12.4858 8.66809 12.9949 8.66809 13.5534C8.66809 13.5602 8.66809 13.5669 8.66809 13.5737C8.66809 14.7983 7.67584 15.7894 6.45128 15.7894ZM2.74497 12.474C2.34953 12.4605 0.891531 9.9467 3.59772 7.26807L5.38759 9.22501C5.41572 9.25257 5.43316 9.29138 5.43316 9.33413C5.43316 9.38194 5.41122 9.4247 5.37634 9.45282C4.46116 10.314 3.64609 11.2624 2.93847 12.2901L2.90022 12.3491C2.85409 12.4796 2.78491 12.4757 2.74441 12.4734L2.74497 12.474ZM9.10459 4.16194C7.95428 3.21357 7.04978 2.00869 6.47209 0.632819L6.44959 0.572632C5.85053 2.00869 4.94716 3.21357 3.81316 4.14957L3.79797 4.16194C2.01934 5.93776 0.00390625 7.95263 0.00390625 10.9721C0.00390625 10.9749 0.00390625 10.9778 0.00390625 10.9806C0.00390625 14.5412 2.89009 17.4274 6.45072 17.4274C10.0113 17.4274 12.8975 14.5412 12.8975 10.9806C12.8975 10.9778 12.8975 10.9744 12.8975 10.9716C12.8975 7.95094 10.8821 5.93832 9.10347 4.16194H9.10459Z" fill="black"/>
</svg>