<svg xmlns="http://www.w3.org/2000/svg" width="18" height="18" viewBox="0 0 18 18" fill="none">
  <path d="M16.5049 0.199951H1.50332C1.15875 0.199951 0.828287 0.336833 0.584635 0.580485C0.340984 0.824136 0.204102 1.1546 0.204102 1.49917V16.5007C0.204102 16.8453 0.340984 17.1758 0.584635 17.4194C0.828287 17.6631 1.15875 17.7999 1.50332 17.7999H16.5049C16.8495 17.7999 17.1799 17.6631 17.4236 17.4194C17.6672 17.1758 17.8041 16.8453 17.8041 16.5007V1.49917C17.8041 1.1546 17.6672 0.824136 17.4236 0.580485C17.1799 0.336833 16.8495 0.199951 16.5049 0.199951ZM5.44988 15.193H2.80377V6.78773H5.44988V15.193ZM4.12499 5.62295C3.82484 5.62126 3.53191 5.53069 3.28317 5.36268C3.03444 5.19467 2.84105 4.95674 2.72741 4.67892C2.61377 4.40111 2.58498 4.09585 2.64466 3.80168C2.70434 3.50752 2.84982 3.23762 3.06275 3.02606C3.27567 2.81449 3.5465 2.67075 3.84104 2.61296C4.13559 2.55516 4.44065 2.58592 4.71773 2.70134C4.99481 2.81676 5.2315 3.01167 5.39791 3.26148C5.56432 3.51129 5.653 3.80479 5.65277 4.10495C5.6556 4.30591 5.61794 4.50538 5.54204 4.69147C5.46614 4.87757 5.35355 5.04648 5.21099 5.18813C5.06842 5.32979 4.89879 5.44129 4.71221 5.51599C4.52563 5.5907 4.32593 5.62707 4.12499 5.62295ZM15.2032 15.2003H12.5583V10.6084C12.5583 9.25417 11.9827 8.83617 11.2395 8.83617C10.4549 8.83617 9.68488 9.42773 9.68488 10.6426V15.2003H7.03877V6.79384H9.58344V7.95862H9.61766C9.8731 7.44162 10.7678 6.55795 12.133 6.55795C13.6094 6.55795 15.2044 7.43428 15.2044 10.001L15.2032 15.2003Z" fill="#272727"/>
</svg>