<svg xmlns="http://www.w3.org/2000/svg" width="34" height="60" viewBox="0 0 34 60" fill="none">
  <path fill-rule="evenodd" clip-rule="evenodd" d="M13.0585 49.6091C11.3402 52.598 9.21327 55.4196 7.18311 58.1976C5.40719 55.2847 3.73593 52.301 2 49.366C4.13749 46.3639 5.71386 42.8887 7.25502 39.5518C9.63203 43.0918 11.5658 46.5038 13.0585 49.6091Z" stroke="#BED74B" stroke-width="3.5008" stroke-miterlimit="1.5" stroke-linecap="round" stroke-linejoin="round"/>
  <path fill-rule="evenodd" clip-rule="evenodd" d="M26.1538 18.8721C26.2389 16.0365 24.9302 13.2087 22.0607 11.5021C20.9496 10.8412 19.6333 10.6006 18.3369 10.4006C23.6034 10.2413 25.4317 5.3797 26.1645 1.61621C25.9101 4.99159 27.9109 8.6375 31.9998 8.97394C27.9294 11.086 26.5324 14.9616 26.1538 18.8721Z" stroke="#272727" stroke-width="3.02784" stroke-miterlimit="1.5" stroke-linecap="round" stroke-linejoin="round"/>
</svg>