<svg xmlns="http://www.w3.org/2000/svg" width="19" height="16" viewBox="0 0 19 16" fill="none">
  <path d="M6.07569 15.44C13.1717 15.44 17.0517 9.56004 17.0517 4.46404C17.0517 4.29604 17.0517 4.12804 17.0437 3.96804C17.7957 3.42404 18.4517 2.74404 18.9717 1.96803C18.2837 2.27204 17.5397 2.48003 16.7557 2.57603C17.5557 2.09603 18.1637 1.34403 18.4517 0.440034C17.7077 0.880034 16.8837 1.20003 16.0037 1.37603C15.2997 0.624034 14.2997 0.160034 13.1877 0.160034C11.0597 0.160034 9.33169 1.88803 9.33169 4.01603C9.33169 4.32003 9.36369 4.61603 9.43569 4.89603C6.22769 4.73603 3.38769 3.20004 1.48369 0.864035C1.15569 1.43203 0.963688 2.09603 0.963688 2.80003C0.963688 4.13603 1.64369 5.32004 2.68369 6.00804C2.05169 5.99204 1.45969 5.81604 0.939687 5.52804C0.939687 5.54404 0.939687 5.56003 0.939687 5.57604C0.939687 7.44804 2.26769 9.00004 4.03569 9.36004C3.71569 9.44804 3.37169 9.49604 3.01969 9.49604C2.77169 9.49604 2.53169 9.47204 2.29169 9.42404C2.77969 10.96 4.20369 12.072 5.89169 12.104C4.57169 13.136 2.90769 13.752 1.09969 13.752C0.787687 13.752 0.483687 13.736 0.179688 13.696C1.86769 14.8 3.89969 15.44 6.07569 15.44Z" fill="#272727"/>
</svg>