<svg xmlns="http://www.w3.org/2000/svg" width="23" height="16" viewBox="0 0 23 16" fill="none">
  <path d="M22.3884 2.50434C22.1248 1.5252 21.3528 0.753185 20.3736 0.48957C18.5848 0 11.4296 0 11.4296 0C11.4296 0 4.27432 0 2.48551 0.47074C1.5252 0.734355 0.734355 1.5252 0.47074 2.50434C0 4.29315 0 8.00259 0 8.00259C0 8.00259 0 11.7309 0.47074 13.5008C0.734355 14.48 1.50637 15.252 2.48551 15.5156C4.29315 16.0052 11.4296 16.0052 11.4296 16.0052C11.4296 16.0052 18.5848 16.0052 20.3736 15.5344C21.3528 15.2708 22.1248 14.4988 22.3884 13.5197C22.8592 11.7309 22.8592 8.02142 22.8592 8.02142C22.8592 8.02142 22.878 4.29315 22.3884 2.50434Z" fill="#272727"/>
  <path d="M9.15112 11.4292L15.1013 8.00219L9.15112 4.5752V11.4292Z" fill="#DDF472"/>
</svg>