<svg xmlns="http://www.w3.org/2000/svg" width="166" height="280" viewBox="0 0 166 280" fill="none">
  <path d="M91.4738 215.727C88.0831 211.96 84.8808 208.004 81.6784 204.425C63.0297 183.138 49.279 159.214 42.4986 131.711C35.1531 102.889 35.9082 74.2546 47.7777 46.5618C61.3428 14.5361 85.2682 -0.724144 120.119 0.592748C123.698 0.78094 127.466 1.15751 131.233 1.53409C152.709 4.5471 172.3 13.2117 189.631 26.0208C218.264 47.1182 239.926 74.0558 254.242 106.834C262.906 126.802 266.861 147.335 263.469 169.188C257.628 206.676 236.527 231.544 199.792 242.283C186.417 246.24 172.477 247.748 158.536 247.372C155.899 247.372 153.073 247.184 149.871 248.503C151.189 249.821 152.319 251.328 153.827 252.082C164.187 257.167 174.736 262.442 185.286 266.962C193.198 270.353 195.458 272.236 194.139 276.193C192.632 279.96 189.241 280.714 181.329 278.454C166.259 274.687 152.884 266.964 140.263 258.111C136.307 255.285 132.351 252.46 128.583 249.446C122.555 244.548 116.151 241.157 108.615 238.52C73.3885 226.277 43.8135 206.122 20.4555 177.112C11.2254 165.621 4.25589 152.623 1.05415 137.741C0.489149 134.916 -0.26423 131.902 0.489431 129.264C1.05469 127.192 3.50377 125.12 5.57598 124.931C6.89467 124.743 9.15514 127.003 10.4737 128.698C11.2272 129.452 11.0388 130.771 11.4155 131.901C14.0521 146.595 21.3984 159.216 30.6285 170.33C46.075 188.791 64.7241 203.672 85.8223 214.974C86.9526 215.727 88.4596 216.104 89.7783 216.669C89.7783 216.669 90.1551 216.292 91.4738 215.727ZM199.991 50.6984C195.47 46.931 187.369 39.5845 178.139 33.3683C157.983 19.6174 135.942 11.5181 110.888 12.8381C93.3679 13.7809 78.6737 20.5634 68.1236 35.2578C57.385 50.5173 52.1094 67.8488 50.7898 86.1219C48.5277 114.379 55.6849 140.753 69.4356 165.43C82.8095 189.731 102.024 208.945 122.18 227.594C124.063 229.477 127.077 230.607 129.715 231.361C154.769 236.823 179.447 236.633 203.561 227.966C224.848 220.241 239.731 205.735 247.079 184.448C254.993 161.465 253.298 138.67 244.445 116.253C235.028 92.8943 220.9 72.7381 199.991 50.6984Z" fill="#353535"/>
</svg>