<svg xmlns="http://www.w3.org/2000/svg" width="595" height="598" viewBox="0 0 595 598" fill="none">
  <path d="M116.149 150.977C127.044 145.976 138.232 141.533 148.569 136.825C209.769 109.718 273.472 95.529 340.346 99.5993C410.596 103.323 474.713 125.203 528.874 171.514C591.623 224.706 609.22 289.477 581.691 367.234C578.744 375.183 575.239 383.424 571.734 391.665C549.8 438.029 516.433 476.157 475.302 506.26C407.494 556.042 331.412 585.971 247.32 595.197C196.131 600.69 146.985 595.152 100.037 572.096C19.5121 532.492 -21.7662 467.331 -20.1306 376.824C-19.6397 343.838 -13.2216 311.301 -2.55025 280.092C-0.69228 274.138 1.72372 267.89 1.0026 259.73C-2.90362 261.778 -7.10245 263.268 -9.86542 266.14C-28.6482 285.949 -47.989 306.05 -65.6285 326.683C-78.8582 342.157 -84.7039 345.934 -92.7066 340.169C-100.151 334.111 -99.4637 325.924 -88.786 309.653C-69.6627 278.281 -42.8021 253.526 -13.9204 231.268C-4.75362 224.327 4.41313 217.387 13.8725 211.004C29.1776 200.845 41.3455 188.773 52.6085 173.619C105.071 102.711 171.416 50.1382 253.372 17.8414C285.819 5.09817 320.076 -1.47902 355.933 1.77802C362.711 2.49336 370.046 2.91612 375.47 6.476C379.75 9.21234 382.704 16.2019 381.669 21.0134C381.166 24.1234 374.469 27.6344 369.712 29.4169C367.48 30.5872 364.636 29.2326 361.818 29.2867C326.786 24.8864 293.113 32.5798 261.517 45.5885C208.953 67.4557 162.214 99.076 121.831 138.748C119.334 140.769 117.422 143.906 115.217 146.485C115.217 146.485 115.802 147.601 116.149 150.977ZM412.286 512.262C423.978 504.709 446.272 491.597 466.81 475.137C512.058 439.318 545.874 395.262 560.548 337.764C570.764 297.544 565.804 259.589 540.061 225.415C513.174 190.418 477.761 166.295 437.434 150.441C375.229 125.423 310.641 123 245.236 136.659C180.948 149.732 124.028 179.575 67.7217 211.942C62.1414 214.868 57.4661 220.877 53.9068 226.301C23.9219 279.02 6.96191 334.871 9.53943 395.421C11.9811 448.926 34.2463 492.75 77.1316 524.339C123.447 558.399 176.105 570.634 232.955 566.442C292.33 561.637 347.793 543.942 412.286 512.262Z" fill="#353535"/>
</svg>