<svg xmlns="http://www.w3.org/2000/svg" width="59" height="59" viewBox="0 0 59 59" fill="none">
  <path fill-rule="evenodd" clip-rule="evenodd" d="M16.3974 56.1853C16.5432 50.6751 14.3002 45.1801 9.38222 41.8637C7.47781 40.5795 5.2218 40.1119 3 39.7233C12.0262 39.4137 15.1598 29.9666 16.4157 22.6533C15.9796 29.2124 19.4088 36.2972 26.4168 36.951C19.4405 41.0551 17.0462 48.5863 16.3974 56.1853Z" stroke="#272727" stroke-width="5.1894" stroke-miterlimit="1.5" stroke-linecap="round" stroke-linejoin="round"/>
  <path fill-rule="evenodd" clip-rule="evenodd" d="M45.9335 36.5329C46.0793 31.0227 43.8364 25.5277 38.9184 22.2113C37.0139 20.9271 34.7579 20.4596 32.5361 20.071C41.5623 19.7613 44.6959 10.3142 45.9518 3.00098C45.5157 9.56007 48.9449 16.6449 55.9529 17.2986C48.9766 21.4028 46.5823 28.934 45.9335 36.5329Z" stroke="#C7DADA" stroke-width="5.1894" stroke-miterlimit="1.5" stroke-linecap="round" stroke-linejoin="round"/>
</svg>