<svg xmlns="http://www.w3.org/2000/svg" width="17" height="16" viewBox="0 0 17 16" fill="none">
  <g clip-path="url(#clip0_6017_8693)">
    <path d="M14.5384 4.78727C14.5446 4.92807 14.5446 5.06247 14.5446 5.20327C14.5508 9.47208 11.4144 14.4001 5.67895 14.4001C3.98731 14.4001 2.32655 13.8945 0.900391 12.9473C1.14734 12.9793 1.3943 12.9921 1.64125 12.9921C3.04271 12.9921 4.40713 12.5057 5.51225 11.6033C4.1787 11.5777 3.00567 10.6753 2.5982 9.35688C3.06741 9.45288 3.54897 9.43368 4.00583 9.29928C2.55498 9.00488 1.5116 7.68008 1.50543 6.13767C1.50543 6.12487 1.50543 6.11207 1.50543 6.09927C1.9376 6.34887 2.42533 6.48967 2.91924 6.50247C1.55482 5.55527 1.12882 3.66726 1.95612 2.18886C3.5428 4.21127 5.87651 5.43367 8.38309 5.56807C8.12996 4.44807 8.4757 3.27046 9.28447 2.47686C10.5378 1.25446 12.5134 1.31846 13.6988 2.61766C14.3964 2.47686 15.0694 2.20806 15.6806 1.83046C15.446 2.57926 14.9582 3.21286 14.31 3.61606C14.9274 3.53926 15.5324 3.36646 16.1004 3.11046C15.6806 3.76326 15.1496 4.32647 14.5384 4.78727Z" fill="#8C8C8C"/>
  </g>
  <defs>
    <clipPath id="clip0_6017_8693">
      <rect width="16" height="16" fill="white" transform="translate(0.5)"/>
    </clipPath>
  </defs>
</svg>