<svg xmlns="http://www.w3.org/2000/svg" width="28" height="28" viewBox="0 0 28 28" fill="none">
  <path d="M20.6018 18.9726C20.5275 19.1362 20.3586 19.4075 20.1311 19.4145C19.726 19.4294 19.6822 19.2211 19.3821 18.7775C18.7223 17.8036 12.9788 11.8002 11.9043 10.6374C10.9585 9.61625 11.7713 8.89612 12.1476 8.519C12.6192 8.04475 14 6.66662 14 6.66662C16.1078 8.6555 18.0188 10.8027 19.7338 13.1057L19.8266 13.2361C20.552 14.2319 20.9877 15.4796 20.9877 16.8297C20.9877 17.5989 20.846 18.3356 20.5878 19.0146L20.6018 18.9726ZM14 24.5665C12.0951 24.5665 10.5516 23.023 10.5516 21.1181C10.5647 20.2449 10.8876 19.4486 11.4152 18.8335L11.4108 18.8387C12.033 18.0784 13.9991 15.9399 13.9991 15.9399C13.9991 15.9399 15.9363 18.1107 16.5838 18.8326C17.1202 19.4276 17.4483 20.2195 17.4483 21.0884C17.4483 21.0989 17.4483 21.1094 17.4483 21.1199C17.4483 23.0247 15.9048 24.5665 14 24.5665ZM8.23458 19.4092C7.61945 19.3882 5.35145 15.4779 9.56108 11.3111L12.3453 14.3552C12.3891 14.3981 12.4162 14.4585 12.4162 14.525C12.4162 14.5994 12.3821 14.6659 12.3278 14.7096C10.9042 16.0492 9.63633 17.5245 8.53558 19.1231L8.47608 19.215C8.40433 19.418 8.2967 19.4119 8.2337 19.4084L8.23458 19.4092ZM18.1273 6.47937C16.338 5.00412 14.931 3.12987 14.0323 0.989621L13.9973 0.895996C13.0655 3.12987 11.6602 5.00412 9.8962 6.46012L9.87258 6.47937C7.10583 9.24175 3.9707 12.376 3.9707 17.073C3.9707 17.0774 3.9707 17.0817 3.9707 17.0861C3.9707 22.6249 8.46033 27.1145 13.9991 27.1145C19.5378 27.1145 24.0275 22.6249 24.0275 17.0861C24.0275 17.0817 24.0275 17.0765 24.0275 17.0721C24.0275 12.3734 20.8923 9.24262 18.1256 6.47937H18.1273Z" fill="black"/>
</svg>