<svg xmlns="http://www.w3.org/2000/svg" width="28" height="24" viewBox="0 0 28 24" fill="none">
  <path d="M24.5665 6.3776C24.5773 6.624 24.5773 6.8592 24.5773 7.1056C24.5881 14.576 19.0995 23.2001 9.06242 23.2001C6.10206 23.2001 3.19573 22.3152 0.699951 20.6576C1.13212 20.7136 1.56429 20.736 1.99646 20.736C4.44902 20.736 6.83675 19.8848 8.77071 18.3056C6.43699 18.2608 4.38419 16.6816 3.67111 14.3744C4.49223 14.5424 5.33496 14.5088 6.13448 14.2736C3.59548 13.7584 1.76957 11.44 1.75877 8.7408C1.75877 8.7184 1.75877 8.696 1.75877 8.6736C2.51506 9.1104 3.36859 9.35681 4.23293 9.37921C1.8452 7.7216 1.09971 4.41759 2.54747 1.83038C5.32416 5.36959 9.40816 7.5088 13.7947 7.744C13.3517 5.78399 13.9567 3.72319 15.3721 2.33438C17.5653 0.195175 21.0227 0.307175 23.0971 2.58078C24.318 2.33438 25.4956 1.86398 26.5653 1.20318C26.1547 2.51358 25.3012 3.62239 24.1667 4.32799C25.2471 4.19359 26.306 3.89119 27.3 3.44319C26.5653 4.58559 25.6361 5.57119 24.5665 6.3776Z" fill="#272727"/>
</svg>